<svg width="21" height="20" viewBox="0 0 21 20" fill="none" xmlns="http://www.w3.org/2000/svg">
<g clip-path="url(#clip0_2325_436)">
<path d="M13.8333 16.6667C13.6567 16.6667 13.48 16.61 13.3333 16.5L10 14C9.79 13.8433 9.66667 13.5958 9.66667 13.3333V10.345L4.7675 5.44667C4.165 4.84333 3.83333 4.0425 3.83333 3.19083C3.83333 1.43167 5.265 0 7.02333 0H17.31C19.0683 0 20.5 1.43083 20.5 3.19083C20.5 4.0425 20.1683 4.84333 19.5658 5.44667L14.6667 10.3458V15.8342C14.6667 16.15 14.4883 16.4383 14.2058 16.58C14.0875 16.6392 13.96 16.6667 13.8333 16.6667ZM9 15.3333C8.37417 14.865 8 14.1175 8 13.3333V11.0358L3.58917 6.625C2.79667 5.83167 2.335 4.80917 2.2175 3.71083C1.20167 4.245 0.5 5.29833 0.5 6.52417C0.5 7.37583 0.831667 8.17667 1.43417 8.78L6.33333 13.6783V16.6667C6.33333 16.9292 6.45667 17.1758 6.66667 17.3333L10 19.8333C10.1467 19.9433 10.3233 20 10.5 20C10.6267 20 10.755 19.9708 10.8725 19.9125C11.155 19.7717 11.3333 19.4825 11.3333 19.1667V17.0833L9 15.3333Z" fill="#0D0D13"/>
</g>
<defs>
<clipPath id="clip0_2325_436">
<rect width="20" height="20" fill="white" transform="translate(0.5)"/>
</clipPath>
</defs>
</svg>
