<svg width="64" height="58" viewBox="0 0 64 58" fill="none" xmlns="http://www.w3.org/2000/svg">
<path d="M57.3952 0.666504H6.6051C5.07438 0.666504 3.60635 1.26353 2.52396 2.32623C1.44157 3.38894 0.833496 4.83028 0.833496 6.33317V14.2665H35.4631L43.3125 6.55984C44.4674 5.43625 45.9881 4.74738 47.6082 4.61387C49.2284 4.48036 50.8447 4.91071 52.1742 5.82956C53.5037 6.74841 54.4615 8.09719 54.88 9.63969C55.2985 11.1822 55.151 12.8201 54.4632 14.2665H63.1668V6.33317C63.1668 4.83028 62.5588 3.38894 61.4764 2.32623C60.394 1.26353 58.9259 0.666504 57.3952 0.666504ZM13.531 9.73317C13.0744 9.73317 12.6281 9.60023 12.2484 9.35117C11.8688 9.1021 11.5729 8.7481 11.3981 8.33392C11.2234 7.91974 11.1777 7.46399 11.2667 7.0243C11.3558 6.58461 11.5757 6.18073 11.8986 5.86373C12.2214 5.54673 12.6328 5.33085 13.0806 5.24339C13.5285 5.15593 13.9927 5.20082 14.4145 5.37238C14.8364 5.54394 15.1969 5.83446 15.4506 6.20721C15.7043 6.57996 15.8397 7.0182 15.8397 7.4665C15.8397 8.06766 15.5964 8.6442 15.1635 9.06928C14.7305 9.49436 14.1433 9.73317 13.531 9.73317ZM22.7656 9.73317C22.309 9.73317 21.8626 9.60023 21.483 9.35117C21.1033 9.1021 20.8074 8.7481 20.6327 8.33392C20.458 7.91974 20.4122 7.46399 20.5013 7.0243C20.5904 6.58461 20.8103 6.18073 21.1331 5.86373C21.456 5.54673 21.8674 5.33085 22.3152 5.24339C22.763 5.15593 23.2272 5.20082 23.6491 5.37238C24.0709 5.54394 24.4315 5.83446 24.6852 6.20721C24.9388 6.57996 25.0742 7.0182 25.0742 7.4665C25.0742 8.06766 24.831 8.6442 24.3981 9.06928C23.9651 9.49436 23.3779 9.73317 22.7656 9.73317ZM52.7779 16.5332L38.6952 30.2692C38.0464 30.907 37.1662 31.2657 36.2481 31.2665H31.3537C30.4353 31.2665 29.5545 30.9083 28.9051 30.2707C28.2556 29.633 27.8908 28.7682 27.8908 27.8665V23.0612C27.8916 22.1597 28.257 21.2955 28.9066 20.6585L33.1083 16.5332H0.833496V51.6665C0.833496 53.1694 1.44157 54.6107 2.52396 55.6734C3.60635 56.7361 5.07438 57.3332 6.6051 57.3332H57.3952C58.9259 57.3332 60.394 56.7361 61.4764 55.6734C62.5588 54.6107 63.1668 53.1694 63.1668 51.6665V16.5332H52.7779ZM11.2224 27.8665H20.457C20.7631 27.8665 21.0567 27.9859 21.2732 28.1984C21.4897 28.411 21.6113 28.6993 21.6113 28.9998C21.6113 29.3004 21.4897 29.5887 21.2732 29.8012C21.0567 30.0138 20.7631 30.1332 20.457 30.1332H11.2224C10.9162 30.1332 10.6226 30.0138 10.4062 29.8012C10.1897 29.5887 10.0681 29.3004 10.0681 28.9998C10.0681 28.6993 10.1897 28.411 10.4062 28.1984C10.6226 27.9859 10.9162 27.8665 11.2224 27.8665ZM11.2224 36.9332H43.5434C43.8495 36.9332 44.1431 37.0526 44.3596 37.2651C44.5761 37.4777 44.6977 37.7659 44.6977 38.0665C44.6977 38.3671 44.5761 38.6553 44.3596 38.8679C44.1431 39.0804 43.8495 39.1998 43.5434 39.1998H11.2224C10.9162 39.1998 10.6226 39.0804 10.4062 38.8679C10.1897 38.6553 10.0681 38.3671 10.0681 38.0665C10.0681 37.7659 10.1897 37.4777 10.4062 37.2651C10.6226 37.0526 10.9162 36.9332 11.2224 36.9332ZM52.7779 48.2665H11.2224C10.9162 48.2665 10.6226 48.1471 10.4062 47.9346C10.1897 47.722 10.0681 47.4338 10.0681 47.1332C10.0681 46.8326 10.1897 46.5443 10.4062 46.3318C10.6226 46.1192 10.9162 45.9998 11.2224 45.9998H52.7779C53.0841 45.9998 53.3777 46.1192 53.5942 46.3318C53.8106 46.5443 53.9323 46.8326 53.9323 47.1332C53.9323 47.4338 53.8106 47.722 53.5942 47.9346C53.3777 48.1471 53.0841 48.2665 52.7779 48.2665ZM51.4158 8.16917C51.8451 8.5902 52.1857 9.09017 52.4181 9.64051C52.6504 10.1908 52.77 10.7808 52.77 11.3765C52.77 11.9723 52.6504 12.5622 52.4181 13.1125C52.1857 13.6628 51.8451 14.1628 51.4158 14.5838L37.0792 28.6598C36.9717 28.7694 36.8425 28.856 36.6996 28.9145C36.5566 28.973 36.4029 29.002 36.2481 28.9998H31.3537C31.0476 28.9998 30.754 28.8804 30.5375 28.6679C30.321 28.4554 30.1994 28.1671 30.1994 27.8665V23.0612C30.1976 22.9125 30.2274 22.7652 30.2871 22.6285C30.3467 22.4919 30.4348 22.369 30.5457 22.2678L44.9055 8.16917C45.7706 7.32483 46.9408 6.85091 48.1607 6.85091C49.3805 6.85091 50.5507 7.32483 51.4158 8.16917Z" fill="#060606"/>
</svg>
