<svg width="68" height="60" viewBox="0 0 68 60" fill="none" xmlns="http://www.w3.org/2000/svg">
<path d="M1.98923 47.9301H54.0541C54.521 47.9301 54.9724 47.7668 55.3303 47.469C55.8304 47.0502 67.2378 37.2369 67.9333 16.0537H12.0168C11.3238 35.2824 0.818167 44.3204 0.708991 44.4106C0.0689384 44.9514 -0.166549 45.8348 0.121402 46.6208C0.40736 47.4048 1.1526 47.9301 1.98923 47.9301Z" fill="#060606"/>
<path d="M66.0078 4.10028H56.0464V2.108C56.0464 0.992324 55.1698 0.115723 54.0541 0.115723C52.9385 0.115723 52.0619 0.992324 52.0619 2.108V4.10028H41.9677V2.108C41.9677 0.992324 41.091 0.115723 39.9754 0.115723C38.8597 0.115723 37.9831 0.992324 37.9831 2.108V4.10028H28.0217V2.108C28.0217 0.992324 27.1451 0.115723 26.0294 0.115723C24.9138 0.115723 24.0372 0.992324 24.0372 2.108V4.10028H14.0758C12.9601 4.10028 12.0835 4.97688 12.0835 6.09255V12.0694H68.0001V6.09255C68.0001 4.97688 67.1235 4.10028 66.0078 4.10028Z" fill="#060606"/>
<path d="M57.8889 50.524C56.8071 51.4248 55.4491 51.9151 54.0541 51.9151H12.0835V57.892C12.0835 58.9932 12.9746 59.8843 14.0758 59.8843H66.0078C67.109 59.8843 68.0001 58.9932 68.0001 57.892V35.5591C64.159 44.9827 58.7989 49.7623 57.8889 50.524Z" fill="#060606"/>
</svg>
